<svg width="1054" height="836" viewBox="0 0 1054 836" fill="none" stroke="currentColor"
    xmlns="http://www.w3.org/2000/svg">
    <path
        d="M105.716 835.461C76.7427 835.461 51.9396 825.244 31.3069 804.809C10.6742 784.375 0.35791 759.81 0.35791 731.115V105.038C0.35791 76.3433 10.6742 51.7785 31.3069 31.344C51.9396 10.9096 76.7427 0.692383 105.716 0.692383H421.791L527.15 105.038H948.583C977.557 105.038 1002.36 115.256 1022.99 135.69C1043.63 156.125 1053.94 180.689 1053.94 209.385V731.115C1053.94 759.81 1043.63 784.375 1022.99 804.809C1002.36 825.244 977.557 835.461 948.583 835.461H105.716ZM71.3931 65.124V762.624H982.393V173.124H492.393L387.393 65.124H71.3931Z"
        fill="currentColor" />
    <path
        d="M378.208 523.845H348.208C337.833 523.845 328.99 520.189 321.677 512.876C314.365 505.564 310.708 496.72 310.708 486.345C310.708 475.97 314.365 467.126 321.677 459.814C328.99 452.501 337.833 448.845 348.208 448.845H378.208V463.845H348.208C341.958 463.845 336.646 466.033 332.271 470.408C327.896 474.783 325.708 480.095 325.708 486.345C325.708 492.595 327.896 497.908 332.271 502.283C336.646 506.658 341.958 508.845 348.208 508.845H378.208V523.845ZM355.708 493.845V478.845H415.708V493.845H355.708ZM393.208 523.845V508.845H423.208C429.458 508.845 434.771 506.658 439.146 502.283C443.521 497.908 445.708 492.595 445.708 486.345C445.708 480.095 443.521 474.783 439.146 470.408C434.771 466.033 429.458 463.845 423.208 463.845H393.208V448.845H423.208C433.583 448.845 442.427 452.501 449.74 459.814C457.052 467.126 460.708 475.97 460.708 486.345C460.708 496.72 457.052 505.564 449.74 512.876C442.427 520.189 433.583 523.845 423.208 523.845H393.208Z"
        fill="currentColor" />
    <path
        d="M378.209 701.46H348.209C337.834 701.46 328.99 697.804 321.678 690.491C314.365 683.179 310.709 674.335 310.709 663.96C310.709 653.585 314.365 644.741 321.678 637.429C328.99 630.116 337.834 626.46 348.209 626.46H378.209V641.46H348.209C341.959 641.46 336.646 643.647 332.271 648.022C327.896 652.397 325.709 657.71 325.709 663.96C325.709 670.21 327.896 675.522 332.271 679.897C336.646 684.272 341.959 686.46 348.209 686.46H378.209V701.46ZM355.709 671.46V656.46H415.709V671.46H355.709ZM393.209 701.46V686.46H423.209C429.459 686.46 434.771 684.272 439.146 679.897C443.521 675.522 445.709 670.21 445.709 663.96C445.709 657.71 443.521 652.397 439.146 648.022C434.771 643.647 429.459 641.46 423.209 641.46H393.209V626.46H423.209C433.584 626.46 442.428 630.116 449.74 637.429C457.053 644.741 460.709 653.585 460.709 663.96C460.709 674.335 457.053 683.179 449.74 690.491C442.428 697.804 433.584 701.46 423.209 701.46H393.209Z"
        fill="currentColor" />
    <path
        d="M142.995 301.934C138.705 301.934 135.032 300.407 131.976 297.352C128.921 294.296 127.394 290.623 127.394 286.333V192.725C127.394 188.435 128.921 184.762 131.976 181.707C135.032 178.652 138.705 177.124 142.995 177.124H189.799L205.4 192.725H267.805C272.096 192.725 275.768 194.253 278.824 197.308C281.879 200.363 283.407 204.036 283.407 208.327V286.333C283.407 290.623 281.879 294.296 278.824 297.352C275.768 300.407 272.096 301.934 267.805 301.934H142.995ZM142.995 192.725V286.333H267.805V208.327H198.965L183.363 192.725H142.995Z"
        fill="currentColor" />
    <path d="M221 680H201V320H221V680Z" fill="currentColor" />
    <path d="M221 496V476H296V496H221Z" fill="currentColor" />
    <path d="M221 680V660H296V680H221Z" fill="currentColor" />
</svg>